<svg width="149" height="188" viewBox="0 0 149 188" fill="none" xmlns="http://www.w3.org/2000/svg">
<path d="M58.7467 76.9555V89.5562L56.8617 88.4686L36.7178 76.8779L48.4645 71.0203L58.7467 76.9555Z" fill="#07190B" stroke="#30D158" stroke-width="1.23678"/>
<path d="M34.8176 103.788L37.4192 102.499L34.8176 103.788ZM36.7183 57.9536V64.2617L42.5759 61.3407L36.7183 57.9536ZM57.4538 97.2782L47.7326 102.126V108.434L58.747 102.949V102.172C58.747 100.557 58.3263 98.9251 57.4538 97.2782Z" fill="#07190B"/>
<path d="M34.8176 103.788L37.4192 102.499M36.7183 57.9536V64.2617L42.5759 61.3407L36.7183 57.9536ZM57.4538 97.2782L47.7326 102.126V108.434L58.747 102.949V102.172C58.747 100.557 58.3263 98.9251 57.4538 97.2782Z" stroke="#30D158" stroke-width="1.23678"/>
<path d="M104.736 78.1985L89.9049 69.6686L60.1957 52.5621L56.8619 50.6355L34.8176 37.9572L3.65967 20.0117V120.879L113.85 184.333V83.4501L104.736 78.1985ZM58.747 89.5562L56.8619 88.4686L36.7182 76.8778V83.1704L53.2476 92.6947C53.5436 92.8656 53.824 93.0521 54.0889 93.2541C54.2135 93.3473 54.3381 93.4405 54.4472 93.5337C54.5718 93.6114 54.6809 93.7202 54.8055 93.8289H54.8211L54.899 93.9066C55.0859 94.0775 55.2883 94.264 55.4597 94.466C56.0984 95.1185 56.6594 95.8954 57.1735 96.7655C57.267 96.9364 57.3603 97.1073 57.4538 97.2782C58.3262 98.9251 58.747 100.557 58.747 102.172V121.081C58.747 122.868 58.2329 124.064 57.1735 124.67C56.1141 125.261 54.8055 125.121 53.2476 124.22L47.7325 121.05V127.343L36.7182 121.003V114.695L25.7039 108.356V95.74L34.8176 100.992L37.4191 102.499L47.7169 108.434V102.126L43.2768 99.5777L34.802 94.699L31.1875 92.617C29.6296 91.7159 28.3211 90.3641 27.2618 88.5463C26.218 86.7284 25.6883 84.9261 25.6883 83.1393V64.215C25.6883 62.4283 26.218 61.2474 27.2618 60.6415C28.3211 60.0355 29.6296 60.1909 31.1875 61.0921L34.802 63.174L36.7026 64.2617V57.9536L42.5603 61.3407L47.7169 64.3083V70.6008L48.4491 71.0203L58.7314 76.9555V89.5562H58.747ZM89.3906 136.774L80.791 141.652L72.207 126.877L69.7766 122.697L91.8055 135.391L89.3906 136.774ZM89.671 107.362L71.1946 96.7344L69.7766 95.9109L76.9899 91.7935L78.8904 90.7215L80.791 89.6339L89.9049 105.311L91.8055 108.589L89.671 107.362Z" fill="#07190B" stroke="#30D158" stroke-width="1.23678"/>
<path d="M91.8047 135.391L89.3898 136.774L80.7902 141.652L72.2062 126.877L69.7759 122.697L91.8047 135.391Z" fill="#07190B" stroke="#30D158" stroke-width="1.23678"/>
<path d="M91.8047 108.589L89.6702 107.362L71.1937 96.7344L69.7759 95.9109L76.9891 91.7935L78.8897 90.7215L80.7902 89.6339L89.904 105.311L91.8047 108.589Z" fill="#07190B" stroke="#30D158" stroke-width="1.23678"/>
<path d="M58.7471 115.565V121.081C58.7471 122.868 58.233 124.064 57.1737 124.67C56.1143 125.261 54.8057 125.121 53.2478 124.22L47.7327 121.05L55.4287 117.212L58.7471 115.565Z" fill="#07190B" stroke="#30D158" stroke-width="1.23678"/>
<path d="M37.4198 102.499L34.8183 103.788L29.989 106.197L25.7046 108.341V95.74L34.8183 100.992L37.4198 102.499Z" fill="#07190B" stroke="#30D158" stroke-width="1.23678"/>
<path d="M58.7467 103.804V110.112L36.7178 121.003V114.758L58.7467 103.804Z" fill="#07190B" stroke="#30D158" stroke-width="1.23678"/>
<path d="M58.7467 110.112V115.565L55.4281 117.212L47.7322 121.05V127.343L36.7178 121.003L58.7467 110.112Z" fill="#07190B" stroke="#30D158" stroke-width="1.23678"/>
<path d="M58.7477 102.949V103.804L36.7188 114.758V114.695L25.7046 108.356V108.341L29.989 106.197L34.8183 103.804L37.4198 102.499H37.4354L47.7332 108.434L58.7477 102.949Z" fill="#07190B" stroke="#30D158" stroke-width="1.23678"/>
<path d="M57.4545 97.2782L47.7332 102.126L43.2931 99.5777L34.8183 94.699L31.2038 92.6171C29.6459 91.7159 28.3374 90.3642 27.2781 88.5463C26.2343 86.7285 25.7046 84.9261 25.7046 83.1394V64.2151C25.7046 62.4283 26.2343 61.2475 27.2781 60.6415C28.3374 60.0356 29.6459 60.1909 31.2038 61.0921L34.8183 63.1741L36.7188 64.2617L42.5764 61.3407L47.7332 64.3083V70.6008L48.4654 71.0204L36.7188 76.8779V83.1704L53.2482 92.6947C53.5442 92.8656 53.8247 93.0521 54.0896 93.2541C54.2142 93.3473 54.3389 93.4405 54.4479 93.5337C54.5725 93.6114 54.6814 93.7202 54.8061 93.829H54.8218L54.8997 93.9066C55.0866 94.0775 55.289 94.264 55.4604 94.466C56.0991 95.1185 56.6601 95.8954 57.1742 96.7655C57.2677 96.9364 57.361 97.1073 57.4545 97.2782Z" fill="#07190B" stroke="#30D158" stroke-width="1.23678"/>
<path d="M145.008 67.9129V168.796L113.85 184.333V83.4501L145.008 67.9129Z" fill="#07190B" stroke="#30D158" stroke-width="1.23678"/>
<path d="M145.007 67.9129L113.85 83.4501L104.736 78.1985L89.9049 69.6686L60.1957 52.5622L56.8619 50.6355L34.8176 37.9572L3.65967 20.0117L34.8176 4.47452L145.007 67.9129Z" fill="#07190B" stroke="#30D158" stroke-width="1.23678"/>
<path d="M36.7176 121.003L36.5308 121.097L36.7176 121.003Z" fill="#07190B"/>
<path d="M36.7176 121.003L36.5308 121.097" stroke="#30D158" stroke-width="1.23678"/>
</svg>
