<svg width="118" height="159" viewBox="0 0 118 159" fill="none" xmlns="http://www.w3.org/2000/svg">
<path d="M88.6264 146.572V156.382L80.1762 151.445C77.2072 149.727 74.3268 147.624 71.4974 145.162C68.6806 142.7 65.9272 139.866 63.25 136.673C60.5728 136.737 57.8068 136.353 54.952 135.506C52.0971 134.66 49.2168 133.391 46.3366 131.711C43.4437 130.018 40.5637 127.928 37.7089 125.453C34.854 122.966 32.088 120.119 29.4108 116.926C26.7336 117.003 23.9803 116.619 21.1635 115.798C18.3467 114.964 15.4537 113.682 12.4974 111.964L4.03445 107.027V97.218L12.4974 102.155C15.4537 103.873 18.3845 105.053 21.2648 105.681C24.1577 106.296 26.8732 106.284 29.4108 105.642C31.9484 109.246 34.6636 112.387 37.5565 115.054C40.4494 117.721 43.3675 119.927 46.3366 121.645C49.2929 123.376 52.2241 124.594 55.1044 125.299C57.9973 126.005 60.7124 126.03 63.25 125.389C65.7877 128.993 68.5028 132.172 71.3957 134.929C74.2886 137.673 77.2072 139.905 80.1762 141.636L88.6264 146.572Z" fill="#07190B" stroke="#30D158" stroke-width="1.16129"/>
<path d="M114.003 133.75V143.559L88.6264 156.382V146.572L105.007 138.289L114.003 133.75Z" fill="#07190B" stroke="#30D158" stroke-width="1.16129"/>
<path d="M114.003 133.75L105.007 138.289L88.6264 146.572L80.1762 141.636C77.2071 139.905 74.2886 137.673 71.3957 134.929C68.5028 132.173 65.7877 128.993 63.25 125.389L69.7211 122.119C70.0637 122.568 70.406 123.017 70.7613 123.453C73.6542 127.056 76.8644 129.89 80.3791 131.955L91.0243 126.582L97.8761 123.12C100.401 125.402 102.964 127.3 105.553 128.813L114.003 133.75Z" fill="#07190B" stroke="#30D158" stroke-width="1.16129"/>
<path d="M69.7211 122.12L63.25 125.389C60.7124 126.03 57.9972 126.005 55.1043 125.3C52.2241 124.594 49.2929 123.376 46.3366 121.645C43.3675 119.927 40.4494 117.721 37.5565 115.054C34.6636 112.387 31.9484 109.246 29.4108 105.643L35.8815 102.373C36.2241 102.822 36.5668 103.27 36.9221 103.706C39.815 107.322 42.9488 110.105 46.3366 112.079C49.7116 114.054 52.8585 114.926 55.7388 114.695C58.4413 114.464 60.8011 113.708 62.8312 112.413C62.9708 112.323 63.1105 112.233 63.25 112.144C63.4657 112.541 63.6814 112.926 63.8971 113.323C65.5973 116.349 67.5388 119.286 69.7211 122.12Z" fill="#07190B" stroke="#30D158" stroke-width="1.16129"/>
<path d="M35.8815 102.373L29.4108 105.642C26.8732 106.284 24.1577 106.296 21.2648 105.681C18.3845 105.053 15.4537 103.873 12.4974 102.155L4.03445 97.218L13.0683 92.6532C16.2911 94.397 19.2346 95.1664 21.8992 94.9484C24.7921 94.7176 27.2919 93.8585 29.4108 92.3967C29.9057 93.3071 30.4131 94.2047 30.946 95.1023C32.4305 97.5899 34.0671 100.013 35.8815 102.373Z" fill="#07190B" stroke="#30D158" stroke-width="1.16129"/>
<path d="M114.954 87.0884L105.755 119.132L97.876 123.12L91.0243 126.582L80.3791 131.955L82.8659 123.312L85.4924 114.157V114.144L85.8223 113.003L89.3624 100.655L89.578 99.911L114.954 87.0884Z" fill="#07190B" stroke="#30D158" stroke-width="1.16129"/>
<path d="M114.954 87.0881L89.5777 99.9107L80.1759 90.627L105.552 77.8044L114.954 87.0881Z" fill="#07190B" stroke="#30D158" stroke-width="1.16129"/>
<path d="M71.7129 63.1226V82.4976L46.3366 58.122L55.3453 53.5698L71.7129 63.1226Z" fill="#07190B" stroke="#30D158" stroke-width="1.16129"/>
<path d="M38.7494 43.889L30.8827 47.864L20.9479 52.8776V33.5027L27.292 37.2084L28.7766 38.0675L38.7494 43.889Z" fill="#07190B" stroke="#30D158" stroke-width="1.16129"/>
<path d="M45.4993 10.3835L37.8737 14.2431L33.6357 16.3844V31.1048L12.4973 18.7566L37.8737 5.93408L45.4993 10.3835Z" fill="#07190B" stroke="#30D158" stroke-width="1.16129"/>
<path d="M84.4015 18.3722L61.8799 29.7585L59.0251 31.1948L46.3242 23.7833L37.8741 18.8593L33.6361 16.3846L37.8741 14.2432L45.4996 10.3836L59.0124 3.56201L84.4015 18.3722Z" fill="#07190B" stroke="#30D158" stroke-width="1.16129"/>
<path d="M84.4011 18.3721V33.0796L75.3801 37.6316L63.5546 43.6197H63.5419L59.0247 45.9022V31.1947L61.8796 29.7585L84.4011 18.3721Z" fill="#07190B" stroke="#30D158" stroke-width="1.16129"/>
<path d="M105.553 45.4276L96.5438 49.9796L83.4622 56.5833L80.1762 58.2502L64.354 49.0179L59.0247 45.9022L63.5419 43.6196H63.5546L75.3801 37.6315L84.4011 33.0796L105.553 45.4276Z" fill="#07190B" stroke="#30D158" stroke-width="1.16129"/>
<path d="M105.552 45.4272V77.8043L80.1759 90.6268V58.2498L83.4619 56.5829L96.5436 49.9794L105.552 45.4272Z" fill="#07190B" stroke="#30D158" stroke-width="1.16129"/>
<path d="M80.1762 90.6273V58.2502L64.354 49.018L59.0247 45.9022V31.1947L46.3239 23.7833L37.8737 18.8593L33.6357 16.3845V31.1048L12.4973 18.7567V51.1337L3.08282 49.4411L12.2818 92.2173C12.5482 92.3711 12.8145 92.5122 13.0683 92.6532C16.2911 94.3971 19.2346 95.1666 21.8991 94.9486C24.792 94.7178 27.2919 93.8586 29.4108 92.3968C29.9056 93.3072 30.413 94.2048 30.9459 95.1023C32.4305 97.5899 34.0671 100.013 35.8815 102.373C36.2241 102.822 36.5668 103.27 36.9221 103.706C39.815 107.322 42.9488 110.105 46.3366 112.079C49.7116 114.054 52.8585 114.926 55.7388 114.695C58.4413 114.464 60.8011 113.708 62.8312 112.413C62.9708 112.323 63.1105 112.233 63.25 112.144C63.4657 112.541 63.6814 112.926 63.8971 113.323C65.5973 116.349 67.5388 119.286 69.7211 122.12C70.0637 122.568 70.406 123.017 70.7613 123.453C73.6542 127.056 76.8644 129.89 80.3791 131.955L82.8659 123.312L85.4924 114.157L85.8223 113.003L89.3624 100.655L89.578 99.9108L80.1762 90.6273ZM71.7129 82.4977L46.3366 58.1222L32.4685 55.2626L20.9475 52.8776V33.5027L27.2916 37.2084L28.7764 38.0675L38.7492 43.889L55.3453 53.57L71.7129 63.1228V82.4977Z" fill="#07190B" stroke="#30D158" stroke-width="1.16129"/>
<path d="M12.4973 44.6836V51.1333L3.08282 49.4408L12.4973 44.6836Z" fill="#07190B" stroke="#30D158" stroke-width="1.16129"/>
<path d="M55.3457 53.57L46.3369 58.122L32.4688 55.2625L20.9479 52.8775L30.8827 47.8639L38.7494 43.8889L55.3457 53.57Z" fill="#07190B" stroke="#30D158" stroke-width="1.16129"/>
</svg>
