<svg width="135" height="145" viewBox="0 0 135 145" fill="none" xmlns="http://www.w3.org/2000/svg">
<path d="M77.3674 58.6198L47.9863 41.6555L28.3947 30.3503L3.13156 15.7607V94.443L37.4138 114.249L57.0054 103.07L22.7231 83.2766V72.0345L28.3947 75.306L33.1568 78.0598L66.8076 97.4872L80.7276 89.5546L90.5293 83.9713L91.3 83.5292L92.841 84.4135L101.089 89.1755V72.3123L77.3674 58.6198ZM52.1042 77.7567L43.5905 72.843L28.3947 64.0639L22.7231 60.7923V49.5502L28.3947 52.8219L33.1568 55.5755L47.9863 64.1398L52.1042 66.5145V77.7567Z" fill="#030E06" stroke="#30D158" stroke-width="1.26316"/>
<path d="M52.1042 66.5145V77.7566L43.5905 72.8429L28.3947 64.0639L22.7231 60.7923L28.3947 57.9629L33.1568 55.5754L47.9863 64.1398L52.1042 66.5145Z" fill="#030E06" stroke="#30D158" stroke-width="1.26316"/>
<path d="M98.1589 123.18L89.3042 128.233L65.582 141.748L57.0054 136.797V126.957L89.582 108.388L90.3526 109.714L98.1589 123.18Z" fill="#030E06" stroke="#30D158" stroke-width="1.26316"/>
<path d="M123.422 110.548L90.8451 129.117L65.582 141.748L89.3042 128.232L98.1589 123.18L123.422 110.548Z" fill="#030E06" stroke="#30D158" stroke-width="1.26316"/>
<path d="M123.422 110.548L98.1589 123.179L90.3526 109.714L89.582 108.388L92.6138 106.872L93.2959 108.034L101.089 121.5L123.321 110.384L123.422 110.548Z" fill="#030E06" stroke="#30D158" stroke-width="1.26316"/>
<path d="M106.117 117.798C106.117 118.354 105.915 118.758 105.498 118.986L101.089 121.499L93.2959 108.034L92.6138 106.872L92.5252 106.708L96.9337 104.194C97.2747 104.005 97.6412 103.992 98.0454 104.156C98.1212 104.194 98.1969 104.232 98.2727 104.27C98.5001 104.409 98.7275 104.586 98.9422 104.826C99.1822 105.078 99.4096 105.381 99.6243 105.76L105.498 115.891C105.915 116.598 106.117 117.23 106.117 117.798Z" fill="#030E06" stroke="#30D158" stroke-width="1.26316"/>
<path d="M126.353 59.6807V76.5438L101.089 89.1754V72.3122L126.353 59.6807Z" fill="#030E06" stroke="#30D158" stroke-width="1.26316"/>
<path d="M92.841 84.4134L92.0708 84.8555L66.8076 97.4871L80.7276 89.5543L90.5293 83.9712L91.3 83.5291L92.841 84.4134Z" fill="#030E06" stroke="#30D158" stroke-width="1.26316"/>
<path d="M82.2685 90.4387L62.6769 101.618L37.4138 114.249L57.0054 103.07L61.3885 100.873L82.2685 90.4387Z" fill="#030E06" stroke="#30D158" stroke-width="1.26316"/>
<path d="M82.2685 90.4383L61.3885 100.872L57.0054 103.07L22.7231 83.2763L28.3947 80.4468L33.1568 78.0593L66.8076 97.4868L81.637 90.0721L82.2685 90.4383Z" fill="#030E06" stroke="#30D158" stroke-width="1.26316"/>
<path d="M33.1568 55.5756L28.3947 57.963L22.7231 60.7924V49.5503L28.3947 52.822L33.1568 55.5756Z" fill="#030E06" stroke="#30D158" stroke-width="1.26316"/>
<path d="M126.353 59.6807L101.089 72.3123L77.3673 58.6198L47.9863 41.6554L28.3947 30.3503L3.13156 15.7607L28.3947 3.12915L126.353 59.6807Z" fill="#030E06" stroke="#30D158" stroke-width="1.26316"/>
<path d="M33.1568 78.0599L28.3947 80.4474L22.7231 83.2768V72.0347L28.3947 75.3062L33.1568 78.0599Z" fill="#030E06" stroke="#30D158" stroke-width="1.26316"/>
<path d="M131.38 105.167C131.38 105.723 131.178 106.127 130.761 106.355L126.353 108.868L101.089 121.5L105.498 118.986C105.915 118.759 106.117 118.355 106.117 117.799C106.117 117.243 105.915 116.599 105.498 115.892L99.6243 105.761C99.4096 105.382 99.1822 105.079 98.9422 104.826C98.7275 104.586 98.5001 104.409 98.2727 104.271C98.197 104.233 98.1212 104.195 98.0454 104.157C97.6412 103.992 97.2747 104.005 96.9337 104.195L122.197 91.5631C122.601 91.3358 123.043 91.361 123.536 91.6389C124.029 91.9295 124.483 92.4221 124.887 93.1295L130.761 103.26C131.178 103.967 131.38 104.599 131.38 105.167Z" fill="#030E06" stroke="#30D158" stroke-width="1.26316"/>
</svg>
