<svg width="129" height="145" viewBox="0 0 129 145" fill="none" xmlns="http://www.w3.org/2000/svg">
<path d="M90.1731 19.0545L65.8335 31.0545L38.8652 15.7065L46.8364 11.7705L63.2048 3.70654L90.1731 19.0545Z" fill="#07190B" stroke="#30D158"/>
<path d="M113.466 86.6865V89.6865C113.466 90.2865 113.393 90.8385 113.223 91.4025L88.8951 103.415H88.8829C89.0533 102.851 89.1263 102.287 89.1263 101.687V97.9305C89.1263 97.3305 89.0899 96.6825 89.0048 95.9865L101.637 92.3625C102.61 92.0745 108.002 89.4225 113.466 86.6865Z" fill="#07190B" stroke="#30D158"/>
<path d="M92.1323 37.9304L74.7781 46.4864H74.766L67.7927 49.9304L67.3789 45.9824L67.318 45.3464L65.8333 31.0544L90.1729 19.0544L91.7185 33.9824L92.1323 37.9304Z" fill="#07190B" stroke="#30D158"/>
<path d="M97.9008 44.9626L83.0414 52.2946L73.5612 56.9626C72.6606 55.7146 71.7479 54.5026 70.8108 53.3146C69.8615 52.1266 68.8514 50.9986 67.7927 49.9426L74.766 46.4986H74.7781L92.1323 37.9426C93.1911 38.9986 94.2012 40.1266 95.1504 41.3146C96.0875 42.5026 97.0002 43.7146 97.9008 44.9626Z" fill="#07190B" stroke="#30D158"/>
<path d="M112.48 46.3306L88.1407 58.3306L87.9095 58.3186L85.512 58.0906L73.5613 56.9626L83.0416 52.2826L97.9009 44.9626L109.852 46.0906L112.48 46.3306Z" fill="#07190B" stroke="#30D158"/>
<path d="M125.977 80.3745C125.977 80.3745 119.685 83.5905 113.466 86.6985C108.002 89.4345 102.611 92.0865 101.637 92.3745L93.7266 72.4305L88.4814 59.2185L88.1407 58.3425L112.48 46.3425L125.977 80.3745Z" fill="#07190B" stroke="#30D158"/>
<path d="M125.843 109.427L112.371 128.087L88.0311 140.087L101.515 121.415C101.88 121.307 103.036 120.779 104.667 119.999C111.202 116.879 125.296 109.703 125.843 109.427Z" fill="#07190B" stroke="#30D158"/>
<path d="M125.855 109.415H125.843C125.296 109.703 111.203 116.879 104.667 119.999C103.037 120.779 101.88 121.307 101.515 121.415L96.1485 113.771L95.8321 113.315L88.8953 103.415L113.223 91.4026L120.488 101.771L125.855 109.415Z" fill="#07190B" stroke="#30D158"/>
<path d="M95.8319 113.315L88.8951 103.415H88.8829C89.0533 102.851 89.1264 102.287 89.1264 101.687V97.9306C89.1264 97.3306 89.0898 96.6826 89.0046 95.9866L101.637 92.3626L93.7265 72.4186L88.4813 59.2066L88.1406 58.3306L87.9094 58.3066L85.5119 58.0786L73.5612 56.9506C72.6606 55.7026 71.7479 54.4906 70.8108 53.3026C69.8615 52.1146 68.8514 50.9866 67.7927 49.9306L67.3789 45.9826L67.318 45.3466L65.8333 31.0546L38.865 15.6946L36.8935 32.3386C35.9199 32.2426 34.9342 32.2426 33.9606 32.3266C33.6807 32.3506 33.4129 32.3866 33.1452 32.4346C32.4515 32.5186 31.7822 32.6386 31.1372 32.7946V32.7706L16.5456 17.5666L3.06146 36.2386L15.6937 54.2506C15.6085 54.8506 15.572 55.4506 15.572 56.0506V59.8066C15.572 60.4066 15.6085 61.0546 15.6937 61.7506L3.06146 65.3746L16.5456 99.4066L31.1372 100.775C32.0378 102.035 32.9505 103.247 33.8997 104.435C34.8368 105.611 35.8469 106.739 36.8935 107.807L38.865 126.671L65.8333 142.031L67.7927 125.387C68.7784 125.495 69.7642 125.495 70.7378 125.387C71.7235 125.303 72.6606 125.147 73.5612 124.919L82.1896 133.955H82.2017L88.0311 140.087L101.515 121.415L96.1483 113.771L95.8319 113.315ZM64.738 99.6466C63.801 100.175 62.803 100.523 61.7443 100.679C61.1723 100.787 60.5881 100.823 59.9796 100.799C57.7404 100.739 55.2821 99.9466 52.5926 98.4346C48.5765 96.1426 45.0838 92.8426 42.1144 88.5106C41.871 88.1626 41.6397 87.8146 41.4207 87.4546C41.0678 86.9146 40.727 86.3506 40.3984 85.7866C40.2159 85.4746 40.0455 85.1626 39.8751 84.8626C38.0983 81.6706 36.857 78.5146 36.139 75.4186C35.6644 73.3306 35.421 71.2666 35.421 69.2266C35.421 63.8626 37.0882 60.2386 40.3984 58.3306C43.6964 56.4226 47.7733 56.8426 52.5926 59.5786C54.8196 60.8506 56.9129 62.4706 58.8357 64.4146C59.8945 65.4826 60.9167 66.6466 61.8903 67.9186C62.8882 69.2266 63.8375 70.6546 64.738 72.1786C65.9185 74.1946 66.8921 76.1866 67.6466 78.1546C68.2308 79.6066 68.6811 81.0586 69.0218 82.4866C69.5086 84.6106 69.7642 86.7106 69.7642 88.7746C69.7642 94.1386 68.0847 97.7626 64.738 99.6466Z" fill="#07190B" stroke="#30D158"/>
<path d="M69.7642 88.7746C69.7642 94.1386 68.0847 97.7626 64.738 99.6466C63.801 100.175 62.803 100.523 61.7443 100.679C61.1723 100.787 60.5881 100.823 59.9796 100.799C57.7404 100.739 55.2821 99.9466 52.5926 98.4346C48.5765 96.1426 45.0838 92.8426 42.1144 88.5106C41.871 88.1626 41.6397 87.8146 41.4207 87.4546C41.0677 86.9146 40.727 86.3506 40.3984 85.7866C40.2159 85.4746 40.0455 85.1626 39.8751 84.8626C38.0983 81.6706 36.857 78.5146 36.139 75.4186C35.6644 73.3306 35.421 71.2666 35.421 69.2266C35.421 63.8626 37.0882 60.2386 40.3984 58.3306C43.6964 56.4226 47.7733 56.8426 52.5926 59.5786C54.8196 60.8506 56.9128 62.4706 58.8357 64.4146C59.8945 65.4826 60.9167 66.6466 61.8903 67.9186C62.6327 69.8626 63.5819 71.8186 64.738 73.7866C65.2857 74.7346 65.8577 75.6466 66.454 76.5106C66.8434 77.0746 67.245 77.6266 67.6466 78.1546C68.2308 79.6066 68.6811 81.0586 69.0218 82.4866C69.5086 84.6106 69.7642 86.7106 69.7642 88.7746Z" fill="#07190B" stroke="#30D158"/>
<path d="M46.8363 11.7706L38.865 15.6946L36.8935 32.3386C35.9199 32.2426 34.9342 32.2426 33.9606 32.3266C33.6807 32.3506 33.413 32.3866 33.1452 32.4346C32.4515 32.5186 31.7822 32.6386 31.1372 32.7946V32.7706L16.5456 17.5666L40.8852 5.57861L46.8363 11.7826V11.7706Z" fill="#07190B" stroke="#30D158"/>
<path d="M82.2017 133.979L65.8333 142.043L67.7927 125.399C68.7784 125.507 69.7642 125.507 70.7377 125.399C71.7235 125.315 72.6606 125.159 73.5611 124.931L82.1895 133.967H82.2017V133.979Z" fill="#07190B" stroke="#30D158"/>
</svg>
