<svg width="169" height="18" viewBox="0 0 169 18" fill="none" xmlns="http://www.w3.org/2000/svg">
<g clip-path="url(#clip0_355_1514)">
<path fill-rule="evenodd" clip-rule="evenodd" d="M9.39033 11.7521C9.4745 11.6281 9.48016 11.4652 9.40481 11.3354L4.71738 3.25969C4.64954 3.14281 4.52655 3.07117 4.39371 3.07117H1.10265C0.811748 3.07117 0.630748 3.39442 0.77781 3.65131L6.93619 14.4085C7.0752 14.6513 7.41337 14.6647 7.57023 14.4336L9.39033 11.7521ZM17.8881 14.9288C18.1788 14.9288 18.3598 14.606 18.2132 14.3491L11.8842 3.26211C11.8167 3.14386 11.693 3.07117 11.5591 3.07117H8.26991C7.97903 3.07117 7.79802 3.39442 7.94508 3.65131L14.2923 14.7383C14.3598 14.8563 14.4834 14.9288 14.6171 14.9288H17.8881ZM3.69824 14.242C3.8471 14.4989 3.66622 14.824 3.37442 14.824H1.11772C0.909794 14.824 0.741234 14.6515 0.741234 14.4386V10.5451C0.741234 10.1533 1.2462 10.0115 1.44153 10.3485L3.69824 14.242ZM26.3782 14.9288H24.4409V3.07117H26.3444L31.7144 12.4218L37.0676 3.07117H38.971V14.9288H37.0338V7.08582L32.5304 14.9288H30.8819L26.3782 7.08582V14.9288ZM50.9673 14.9288H43.473V3.07117H50.9673V5.00227H45.4103V8.03444H50.9673V9.96556H45.4103V12.9977H50.9673V14.9288ZM58.383 14.9288H60.3203V5.00227H64.8069V3.07117H53.8793V5.00227H58.383V14.9288ZM78.5102 14.9288H76.3859L75.4173 12.8622H68.6535L67.7019 14.9288H65.5777L71.1006 3.07117H72.987L78.5102 14.9288ZM72.0354 5.59514L69.5542 10.9311H74.5166L72.0354 5.59514ZM81.8651 14.9288H83.8024V11.2021H86.3006C88.6798 11.2021 90.3962 9.49125 90.3962 7.13664C90.3962 4.799 88.6798 3.07117 86.3006 3.07117H81.8651V14.9288ZM83.8024 9.27102V5.00227H86.3006C87.5581 5.00227 88.4587 5.90006 88.4587 7.13664C88.4587 8.37325 87.5581 9.27102 86.3006 9.27102H83.8024ZM101.656 14.9288H94.0595V3.07117H95.9968V12.9977H101.656V14.9288ZM105.059 14.9288H112.554V12.9977H106.996V9.96556H112.554V8.03444H106.996V5.00227H112.554V3.07117H105.059V14.9288ZM118.083 14.9288H115.584L120.394 9L115.584 3.07117H118.083L121.651 7.4585L125.22 3.07117H127.701L122.892 9L127.701 14.9288H125.203L121.651 10.5415L118.083 14.9288Z" fill="white"/>
</g>
<path d="M145.902 5.90622V12.4462C145.902 13.5529 145.575 14.3596 144.922 14.8662C144.282 15.3729 143.208 15.6262 141.702 15.6262H137.462C137.355 15.6262 137.302 15.5729 137.302 15.4662V2.88622C137.302 2.77955 137.355 2.72622 137.462 2.72622H141.702C143.208 2.72622 144.282 2.97955 144.922 3.48622C145.575 3.99289 145.902 4.79955 145.902 5.90622ZM144.602 12.4462V5.90622C144.602 5.13289 144.388 4.61289 143.962 4.34622C143.535 4.06622 142.668 3.92622 141.362 3.92622H138.602V14.4262H141.362C142.668 14.4262 143.535 14.2929 143.962 14.0262C144.388 13.7462 144.602 13.2196 144.602 12.4462ZM157.35 15.4462L157.37 15.5062C157.37 15.5862 157.317 15.6262 157.21 15.6262H156.19C156.097 15.6262 156.037 15.5862 156.01 15.5062L154.89 12.2662H149.81L148.69 15.5062C148.664 15.5862 148.604 15.6262 148.51 15.6262H147.49C147.37 15.6262 147.324 15.5662 147.35 15.4462L151.71 2.84622C151.724 2.76622 151.784 2.72622 151.89 2.72622H152.81C152.917 2.72622 152.977 2.76622 152.99 2.84622L157.35 15.4462ZM150.21 11.0662H154.49L153.43 8.00622C152.937 6.56622 152.577 5.41289 152.35 4.54622C152.124 5.41289 151.764 6.56622 151.27 8.00622L150.21 11.0662ZM158.495 12.5262V11.8662C158.495 11.7596 158.548 11.7062 158.655 11.7062H159.635C159.741 11.7062 159.795 11.7596 159.795 11.8662V12.5262C159.795 13.2996 159.988 13.8396 160.375 14.1462C160.775 14.4396 161.561 14.5862 162.735 14.5862H162.855C164.028 14.5862 164.808 14.4396 165.195 14.1462C165.595 13.8396 165.795 13.2996 165.795 12.5262V11.9462C165.795 11.2929 165.668 10.8462 165.415 10.6062C165.175 10.3529 164.621 10.1262 163.755 9.92622L161.315 9.38622C160.328 9.15955 159.628 8.80622 159.215 8.32622C158.801 7.84622 158.595 7.13955 158.595 6.20622V5.82622C158.595 4.67955 158.908 3.85289 159.535 3.34622C160.175 2.82622 161.241 2.56622 162.735 2.56622H162.855C164.348 2.56622 165.408 2.82622 166.035 3.34622C166.661 3.85289 166.975 4.67955 166.975 5.82622V6.48622C166.975 6.59289 166.921 6.64622 166.815 6.64622H165.835C165.728 6.64622 165.675 6.59289 165.675 6.48622V5.82622C165.675 5.05289 165.481 4.51955 165.095 4.22622C164.708 3.91955 163.961 3.76622 162.855 3.76622H162.735C161.601 3.76622 160.841 3.91955 160.455 4.22622C160.081 4.51955 159.895 5.05289 159.895 5.82622V6.20622C159.895 6.83289 160.021 7.28622 160.275 7.56622C160.528 7.83289 161.055 8.05289 161.855 8.22622L164.295 8.76622C165.361 9.00622 166.095 9.35289 166.495 9.80622C166.895 10.2462 167.095 10.9596 167.095 11.9462V12.5262C167.095 13.6729 166.781 14.5062 166.155 15.0262C165.528 15.5329 164.428 15.7862 162.855 15.7862H162.735C161.161 15.7862 160.061 15.5329 159.435 15.0262C158.808 14.5062 158.495 13.6729 158.495 12.5262Z" fill="white"/>
<defs>
<clipPath id="clip0_355_1514">
<rect width="126.976" height="11.8577" fill="white" transform="translate(0.726074 3.07117)"/>
</clipPath>
</defs>
</svg>
