<svg width="153" height="26" viewBox="0 0 153 26" fill="none" xmlns="http://www.w3.org/2000/svg">
<path d="M16.2148 19.0534V0.526413L24.237 6.87726V25.4235L16.2148 19.0534Z" fill="#227D39"/>
<path d="M0.855973 19.0966L16.2148 15.7738V8.54277L8.8781 10.0661L0.745239 3.62806L16.2148 0.525833V8.54277L24.2368 6.87712V22.0964L8.8781 25.4742L0.855973 19.0966Z" fill="#30D158"/>
<path d="M0.745605 19.0095V3.62823L8.87788 10.0661V25.4735L0.745605 19.0095Z" fill="#227D39"/>
<path d="M46.7696 18.7778L46.7918 18.8445C46.7918 18.9481 46.7326 19 46.6141 19H44.4811C44.3626 19 44.2811 18.9481 44.2367 18.8445L43.2591 15.9338H38.3266L37.349 18.8445C37.3045 18.9481 37.2157 19 37.0823 19H34.9716C34.8235 19 34.7642 18.9259 34.7938 18.7778L39.6152 4.82462C39.6597 4.72093 39.7411 4.66909 39.8596 4.66909H41.726C41.8445 4.66909 41.926 4.72093 41.9704 4.82462L46.7696 18.7778ZM39.0598 13.7342H42.5036L41.7482 11.4679C41.289 10.0904 40.9706 8.97206 40.7928 8.11295C40.6003 9.06093 40.2744 10.1793 39.8152 11.4679L39.0598 13.7342ZM47.3367 16.0005V15.3562C47.3367 15.208 47.4033 15.134 47.5366 15.134H49.5363C49.6696 15.134 49.7363 15.208 49.7363 15.3562V16.0005C49.7363 16.356 49.8992 16.6152 50.2251 16.7781C50.5509 16.9411 51.1064 17.0225 51.8915 17.0225H52.0248C52.795 17.0225 53.3357 16.9411 53.6467 16.7781C53.9578 16.6152 54.1133 16.356 54.1133 16.0005V15.7117C54.1133 15.445 54.0392 15.2525 53.8911 15.134C53.743 15.0007 53.4467 14.8748 53.0024 14.7563L50.0473 13.9342C49.129 13.6824 48.4698 13.3269 48.0699 12.8677C47.6848 12.3937 47.4922 11.7716 47.4922 11.0013V10.7125C47.4922 9.66083 47.8403 8.87578 48.5365 8.35735C49.2326 7.82411 50.3362 7.55748 51.847 7.55748H51.9803C54.8984 7.55748 56.3574 8.60916 56.3574 10.7125V11.3791C56.3574 11.5124 56.2907 11.579 56.1574 11.579H54.18C54.0318 11.579 53.9578 11.5124 53.9578 11.3791V10.7125C53.9578 10.046 53.2986 9.71267 51.9803 9.71267H51.847C51.136 9.71267 50.6324 9.79414 50.3362 9.95708C50.0547 10.1052 49.914 10.357 49.914 10.7125V11.0013C49.914 11.2383 49.9881 11.4235 50.1362 11.5568C50.2843 11.6901 50.588 11.8234 51.0472 11.9567L54.0022 12.7566C54.9206 13.0084 55.5649 13.3639 55.9352 13.8231C56.3203 14.2675 56.5129 14.897 56.5129 15.7117V16.0005C56.5129 18.1187 55.0168 19.1777 52.0248 19.1777H51.8915C48.8549 19.1777 47.3367 18.1187 47.3367 16.0005ZM57.5893 16.0005V15.3562C57.5893 15.208 57.6559 15.134 57.7892 15.134H59.7889C59.9222 15.134 59.9889 15.208 59.9889 15.3562V16.0005C59.9889 16.356 60.1518 16.6152 60.4777 16.7781C60.8035 16.9411 61.359 17.0225 62.1441 17.0225H62.2774C63.0476 17.0225 63.5883 16.9411 63.8993 16.7781C64.2104 16.6152 64.3659 16.356 64.3659 16.0005V15.7117C64.3659 15.445 64.2918 15.2525 64.1437 15.134C63.9956 15.0007 63.6993 14.8748 63.255 14.7563L60.2999 13.9342C59.3816 13.6824 58.7224 13.3269 58.3225 12.8677C57.9374 12.3937 57.7448 11.7716 57.7448 11.0013V10.7125C57.7448 9.66083 58.0929 8.87578 58.7891 8.35735C59.4852 7.82411 60.5888 7.55748 62.0996 7.55748H62.2329C65.1509 7.55748 66.61 8.60916 66.61 10.7125V11.3791C66.61 11.5124 66.5433 11.579 66.41 11.579H64.4326C64.2844 11.579 64.2104 11.5124 64.2104 11.3791V10.7125C64.2104 10.046 63.5512 9.71267 62.2329 9.71267H62.0996C61.3886 9.71267 60.885 9.79414 60.5888 9.95708C60.3073 10.1052 60.1666 10.357 60.1666 10.7125V11.0013C60.1666 11.2383 60.2407 11.4235 60.3888 11.5568C60.5369 11.6901 60.8406 11.8234 61.2998 11.9567L64.2548 12.7566C65.1732 13.0084 65.8175 13.3639 66.1878 13.8231C66.5729 14.2675 66.7655 14.897 66.7655 15.7117V16.0005C66.7655 18.1187 65.2694 19.1777 62.2774 19.1777H62.1441C59.1075 19.1777 57.5893 18.1187 57.5893 16.0005ZM77.5069 13.9342H70.6414V15.3562C70.6414 15.9783 70.7969 16.4152 71.108 16.667C71.419 16.904 72.0189 17.0225 72.9077 17.0225H73.041C73.9445 17.0225 74.5444 16.904 74.8407 16.667C75.1517 16.4301 75.3073 15.9931 75.3073 15.3562V15.3339C75.3073 15.2006 75.3813 15.134 75.5295 15.134H77.5069C77.655 15.134 77.7291 15.2006 77.7291 15.3339V15.3562C77.7291 16.6745 77.3588 17.6447 76.6182 18.2668C75.8924 18.8741 74.7 19.1777 73.041 19.1777H72.9077C71.2487 19.1777 70.0489 18.8741 69.3083 18.2668C68.5825 17.6447 68.2196 16.6745 68.2196 15.3562V11.3791C68.2196 10.0608 68.5825 9.09796 69.3083 8.49066C70.0489 7.86854 71.2487 7.55748 72.9077 7.55748H73.041C74.7 7.55748 75.8924 7.86854 76.6182 8.49066C77.3588 9.09796 77.7291 10.0608 77.7291 11.3791V13.712C77.7291 13.8601 77.655 13.9342 77.5069 13.9342ZM70.6414 11.3791V12.1567H75.3073V11.3791C75.3073 10.7421 75.1517 10.3052 74.8407 10.0682C74.5444 9.83117 73.9445 9.71267 73.041 9.71267H72.9077C72.0189 9.71267 71.419 9.83858 71.108 10.0904C70.7969 10.3274 70.6414 10.7569 70.6414 11.3791ZM85.2761 17.1781V18.8889C85.2761 19.0222 85.2094 19.0889 85.0761 19.0889H83.7652C82.3728 19.0889 81.3804 18.8074 80.7879 18.2446C80.2103 17.6817 79.9214 16.7189 79.9214 15.3562V9.77933H78.3883C78.2402 9.77933 78.1662 9.71267 78.1662 9.57936V8.60175C78.1662 8.45363 78.2328 8.37216 78.3661 8.35735L79.9214 8.06851V4.86905C79.9214 4.73574 79.9955 4.66909 80.1436 4.66909H82.1655C82.2988 4.66909 82.3654 4.73574 82.3654 4.86905V7.73523H85.0317C85.165 7.73523 85.2316 7.80189 85.2316 7.9352V9.57936C85.2316 9.71267 85.165 9.77933 85.0317 9.77933H82.3654V15.4006C82.3654 15.9931 82.4839 16.4078 82.7209 16.6448C82.9579 16.867 83.3875 16.9781 84.0096 16.9781H85.0761C85.2094 16.9781 85.2761 17.0448 85.2761 17.1781ZM90.4042 15.5561V14.8896C90.4042 14.7711 90.456 14.7118 90.5597 14.7118H91.3596C91.4633 14.7118 91.5151 14.7711 91.5151 14.8896V15.5561C91.5151 16.5634 91.7447 17.2521 92.2039 17.6224C92.6779 17.9779 93.611 18.1557 95.0034 18.1557H95.1367C96.5143 18.1557 97.4326 17.9779 97.8918 17.6224C98.3658 17.2521 98.6028 16.5634 98.6028 15.5561V14.934C98.6028 14.149 98.4547 13.6083 98.1584 13.3121C97.877 13.0158 97.2326 12.7566 96.2254 12.5344L93.3814 11.8901C92.315 11.6531 91.5669 11.2902 91.1374 10.8014C90.7226 10.3126 90.5153 9.55715 90.5153 8.5351V8.09073C90.5153 6.80206 90.8485 5.8837 91.5151 5.33564C92.1817 4.77277 93.3444 4.49134 95.0034 4.49134H95.1367C96.7957 4.49134 97.951 4.77277 98.6028 5.33564C99.2693 5.8837 99.6026 6.80206 99.6026 8.09073V8.7795C99.6026 8.898 99.5434 8.95725 99.4249 8.95725H98.6472C98.5435 8.95725 98.4917 8.898 98.4917 8.7795V8.09073C98.4917 7.0983 98.2621 6.42434 97.8029 6.06885C97.3437 5.69854 96.455 5.51339 95.1367 5.51339H95.0034C93.6703 5.51339 92.7741 5.69854 92.315 6.06885C91.8558 6.42434 91.6262 7.0983 91.6262 8.09073V8.5351C91.6262 9.30534 91.7595 9.83858 92.0261 10.1348C92.3076 10.4311 92.9223 10.6903 93.8703 10.9125L96.7142 11.5568C97.8844 11.8234 98.6768 12.1937 99.0916 12.6677C99.5063 13.1269 99.7137 13.8823 99.7137 14.934V15.5561C99.7137 16.8744 99.3804 17.8076 98.7139 18.3556C98.0473 18.9037 96.8549 19.1777 95.1367 19.1777H95.0034C93.2852 19.1777 92.0854 18.9037 91.404 18.3556C90.7375 17.7928 90.4042 16.8596 90.4042 15.5561ZM110.415 8.13516V23.2881C110.415 23.3918 110.363 23.4437 110.259 23.4437H109.481C109.363 23.4437 109.304 23.3918 109.304 23.2881V18.2001C108.03 18.8519 106.734 19.1777 105.416 19.1777C104.171 19.1777 103.283 18.8889 102.749 18.3112C102.216 17.7335 101.949 16.8004 101.949 15.5117V11.4679C101.949 10.1644 102.216 9.22387 102.749 8.64619C103.283 8.06851 104.171 7.77967 105.416 7.77967C106.749 7.77967 108.052 8.11295 109.326 8.7795L109.659 8.06851C109.674 7.99445 109.733 7.95742 109.837 7.95742H110.259C110.363 7.95742 110.415 8.01667 110.415 8.13516ZM109.304 17.2892V9.69046C108.148 9.11278 106.919 8.82394 105.615 8.82394C104.608 8.82394 103.927 9.0239 103.571 9.42383C103.231 9.80895 103.06 10.557 103.06 11.6679V15.3117C103.06 16.4078 103.231 17.1559 103.571 17.5558C103.927 17.9557 104.608 18.1557 105.615 18.1557C106.875 18.1557 108.104 17.8668 109.304 17.2892ZM121.752 8.13516V18.8445C121.752 18.9481 121.7 19 121.596 19H121.174C121.1 19 121.033 18.9555 120.974 18.8667L120.663 18.2001C119.434 18.8519 118.152 19.1777 116.819 19.1777C115.605 19.1777 114.731 18.8963 114.197 18.3334C113.679 17.7558 113.42 16.8152 113.42 15.5117V8.13516C113.42 8.01667 113.472 7.95742 113.575 7.95742H114.375C114.479 7.95742 114.531 8.01667 114.531 8.13516V15.3117C114.531 16.4078 114.701 17.1559 115.042 17.5558C115.397 17.9557 116.064 18.1557 117.041 18.1557C118.226 18.1557 119.426 17.8743 120.641 17.3114V8.13516C120.641 8.01667 120.7 7.95742 120.818 7.95742H121.596C121.7 7.95742 121.752 8.01667 121.752 8.13516ZM132.867 11.2902V18.8445C132.867 18.9481 132.822 19 132.734 19H132.289C132.186 19 132.126 18.963 132.111 18.8889L131.778 18.2001C130.593 18.8519 129.319 19.1777 127.957 19.1777C125.527 19.1777 124.313 18.1557 124.313 16.1116V15.8227C124.313 14.8007 124.579 14.0675 125.113 13.6231C125.661 13.1639 126.572 12.9343 127.846 12.9343H131.756V11.2902C131.756 10.357 131.549 9.71267 131.134 9.35718C130.734 9.00168 129.971 8.82394 128.845 8.82394H128.712C127.586 8.82394 126.816 9.00168 126.401 9.35718C126.001 9.71267 125.801 10.3496 125.801 11.268V11.3346C125.801 11.4383 125.742 11.4901 125.624 11.4901H124.868C124.75 11.4901 124.691 11.4383 124.691 11.3346V11.268C124.691 10.0237 124.994 9.13499 125.601 8.60175C126.224 8.0537 127.26 7.77967 128.712 7.77967H128.845C130.297 7.77967 131.326 8.0537 131.934 8.60175C132.556 9.14981 132.867 10.046 132.867 11.2902ZM128.046 18.2001C129.334 18.2001 130.571 17.8891 131.756 17.2669V13.912H127.757C126.883 13.912 126.275 14.0527 125.935 14.3341C125.594 14.6155 125.424 15.1118 125.424 15.8227V16.1116C125.424 16.8522 125.624 17.3854 126.024 17.7113C126.424 18.0372 127.098 18.2001 128.046 18.2001ZM140.702 7.95742V8.64619C140.702 8.76469 140.65 8.82394 140.547 8.82394H140.325C138.903 8.82394 137.784 9.23127 136.97 10.046V18.8445C136.97 18.9481 136.918 19 136.814 19H136.014C135.91 19 135.859 18.9481 135.859 18.8445V8.13516C135.859 8.01667 135.91 7.95742 136.014 7.95742H136.436C136.525 7.95742 136.592 8.01667 136.636 8.13516L136.947 9.09056C137.821 8.21663 138.947 7.77967 140.325 7.77967H140.547C140.65 7.77967 140.702 7.83892 140.702 7.95742ZM150.122 13.6231H142.834V15.6006C142.834 16.5782 143.049 17.2521 143.478 17.6224C143.908 17.9779 144.73 18.1557 145.945 18.1557H146.078C147.292 18.1557 148.115 17.9779 148.544 17.6224C148.974 17.2521 149.188 16.593 149.188 15.645V15.5783C149.188 15.4598 149.24 15.4006 149.344 15.4006H150.122C150.225 15.4006 150.277 15.4598 150.277 15.5783V15.645C150.277 16.9189 149.966 17.8298 149.344 18.3779C148.737 18.9111 147.648 19.1777 146.078 19.1777H145.945C144.389 19.1777 143.293 18.9037 142.656 18.3556C142.034 17.8076 141.723 16.8892 141.723 15.6006V11.3568C141.723 10.0682 142.034 9.14981 142.656 8.60175C143.293 8.0537 144.389 7.77967 145.945 7.77967H146.078C147.633 7.77967 148.722 8.0537 149.344 8.60175C149.966 9.14981 150.277 10.0682 150.277 11.3568V13.4676C150.277 13.5713 150.225 13.6231 150.122 13.6231ZM142.834 11.3568V12.6677H149.188V11.3568C149.188 10.394 148.974 9.73489 148.544 9.3794C148.115 9.00909 147.292 8.82394 146.078 8.82394H145.945C144.73 8.82394 143.908 9.00909 143.478 9.3794C143.049 9.73489 142.834 10.394 142.834 11.3568Z" fill="white"/>
</svg>
